<svg xmlns="http://www.w3.org/2000/svg" width="47.5" height="47.5" viewBox="0 0 47.5 47.5">
  <g id="余额" transform="translate(-38.4 -38.4)">
    <path id="路径_22" data-name="路径 22" d="M49.248,270.08a21.377,21.377,0,0,0-8.949,1.947,19.973,19.973,0,0,0-1.9,8.52,20.759,20.759,0,0,0,21.016,20.491,21.376,21.376,0,0,0,8.949-1.947,19.973,19.973,0,0,0,1.9-8.52A20.759,20.759,0,0,0,49.248,270.08Z" transform="translate(2 -218.137)" fill="#d81b36"/>
    <path id="路径_23" data-name="路径 23" d="M62.15,38.4A23.75,23.75,0,1,0,85.9,62.15,23.75,23.75,0,0,0,62.15,38.4ZM76.039,76.039a19.642,19.642,0,1,1,0-27.778,19.642,19.642,0,0,1,0,27.778Z" transform="translate(0)" fill="#494949"/>
    <path id="路径_24" data-name="路径 24" d="M347.868,251.5a2.054,2.054,0,0,0-2.9,0l-5.609,5.608-5.609-5.608a2.054,2.054,0,0,0-2.9,2.9l5.608,5.609h-4.156a2.054,2.054,0,1,0,0,4.108H337.3v3.209h-5.007a2.054,2.054,0,0,0,0,4.108H337.3v5.649a2.054,2.054,0,1,0,4.108,0v-5.649h5.007a2.054,2.054,0,1,0,0-4.108h-5.007v-3.209h5.007a2.054,2.054,0,1,0,0-4.108H342.26l5.608-5.609a2.054,2.054,0,0,0,0-2.9Z" transform="translate(-277.205 -201.842)" fill="#494949"/>
  </g>
</svg>
